<svg width="512" height="512" xmlns="http://www.w3.org/2000/svg">

 <g>
  <title>background</title>
  <rect fill="none" id="canvas_background" height="514" width="514" y="-1" x="-1"/>
 </g>
 <g>
  <title>Layer 1</title>
  <g fill="#4a4a4a" id="SvgjsG1034"/>
  <g transform="matrix(2.83964845599523,0,0,2.635076907182407,-201.81618005147448,-287.15668911414997) " fill="#4a4a4a000" id="SvgjsG1036">
   <path id="svg_2" fill="#4a4a4a" d="m189.81684,195.377546c-0.784,0 -1.54,-0.476 -1.852,-1.252c-3.692,-9.108 -12.424,-15 -22.252,-15c-5.02,0 -9.828,1.532 -13.896,4.428c-0.896,0.636 -2.144,0.428 -2.784,-0.468c-0.644,-0.904 -0.432,-2.148 0.468,-2.784c4.748,-3.388 10.356,-5.176 16.212,-5.176c11.468,0 21.656,6.868 25.96,17.5c0.416,1.02 -0.08,2.184 -1.1,2.6c-0.248,0.1 -0.5,0.152 -0.756,0.152z"/>
   <path id="svg_3" fill="#4a4a4a" d="m165.71284,171.125546c-1.104,0 -2,-0.9 -2,-2l0,-8c0,-1.1 0.896,-2 2,-2c1.1,0 2,0.9 2,2l0,8c0,1.1 -0.9,2 -2,2z"/>
   <path id="svg_4" fill="#4a4a4a" d="m207.71284,205.125546l-8,0c-1.104,0 -2,-0.9 -2,-2s0.896,-2 2,-2l8,0c1.1,0 2,0.9 2,2s-0.9,2 -2,2z"/>
   <path id="svg_5" fill="#4a4a4a" d="m140.20484,181.617546c-0.512,0 -1.024,-0.196 -1.416,-0.584l-5.604,-5.596c-0.78,-0.772 -0.78,-2.056 0,-2.828s2.048,-0.772 2.828,0l5.604,5.596c0.78,0.78 0.78,2.06 0,2.828c-0.396,0.388 -0.904,0.584 -1.412,0.584z"/>
   <path id="svg_6" fill="#4a4a4a" d="m189.80484,180.205546c-0.512,0 -1.024,-0.196 -1.416,-0.584c-0.776,-0.776 -0.776,-2.052 0,-2.828l4.196,-4.192c0.78,-0.78 2.048,-0.78 2.828,0s0.78,2.048 0,2.828l-4.196,4.192c-0.392,0.388 -0.904,0.584 -1.412,0.584z"/>
   <path stroke="null" id="svg_7" fill="#4a4a4a" d="m180.13684,253.125546l-36.084,0c-16.976,0 -31.32,-14.984 -31.32,-32.728c0,-17.748 14.34,-32.732 31.32,-32.732c10.436,0 19.952,5.068 25.812,13.628c3.296,-1.572 6.748,-2.356 10.272,-2.356c13.308,0 24.556,11.896 24.556,25.948c-0.004,13.076 -10.728,28.24 -24.556,28.24zm-36.084,-61.444c-14.808,0 -27.32,13.156 -27.32,28.736s12.508,28.736 27.32,28.736l36.084,0c11.58,0 20.556,-13.016 20.556,-24.228c0,-11.696 -9.608,-21.944 -20.556,-21.944c-3.436,0 -6.796,0.916 -9.996,2.712l-1.692,0.952l-1,-1.664c-5,-8.34 -13.748,-13.3 -23.396,-13.3z"/>
  </g>
 </g>
</svg>
